<?xml version="1.0" encoding="UTF-8"?>
<svg width="41px" height="27px" viewBox="0 0 41 27" version="1.1" xmlns="http://www.w3.org/2000/svg" xmlns:xlink="http://www.w3.org/1999/xlink">
    <title>A8334880-CA20-43D4-8933-645FF94316C3</title>
    <defs>
        <path d="M3.00116887,0.428489153 C1.90908261,0.428489153 1.01348914,1.32583238 1.01348914,2.41775522 L1.01348914,2.41775522 L1.01348914,24.9155057 C1.01348914,26.0084636 1.90908261,26.9047718 3.00116887,26.9047718 L3.00116887,26.9047718 L38.7411396,26.9047718 C39.8332259,26.9047718 40.7288194,26.0084636 40.7288194,24.9155057 L40.7288194,24.9155057 L40.7288194,2.41775522 C40.7288194,1.32583238 39.8332259,0.428489153 38.7411396,0.428489153 L38.7411396,0.428489153 L3.00116887,0.428489153 Z" id="path-1"></path>
        <path d="M21.9492792,0.422279165 L21.9492792,1.45003213 C21.8179393,1.28132747 21.5852504,1.15091772 21.3246389,1.15091772 L21.3246389,1.15091772 C20.7651516,1.15091772 20.3628584,1.58044187 20.3628584,2.17867069 L20.3628584,2.17867069 C20.3628584,2.77586451 20.7930742,3.20642366 21.3246389,3.20642366 L21.3246389,3.20642366 C21.5852504,3.20642366 21.8179393,3.10395886 21.9492792,2.90730925 L21.9492792,2.90730925 L21.9492792,3.14121879 L22.3505381,3.14121879 L22.3505381,2.20661564 L22.3505381,0.422279165 L21.9492792,0.422279165 Z M20.7651516,2.20661564 C20.7651516,1.84229636 20.9978404,1.54318195 21.3887576,1.54318195 L21.3887576,1.54318195 C21.7527864,1.54318195 21.9865094,1.84229636 21.9865094,2.20661564 L21.9865094,2.20661564 C21.9865094,2.60819484 21.7527864,2.87004932 21.3887576,2.87004932 L21.3887576,2.87004932 C20.9978404,2.87004932 20.7651516,2.57093492 20.7651516,2.20661564 L20.7651516,2.20661564 Z M9.15552999,0.617893778 L9.15552999,1.2161226 L8.72634837,1.2161226 L8.72634837,1.58044187 L9.15552999,1.58044187 L9.15552999,2.50573005 C9.15552999,2.97251412 9.32410013,3.2343686 9.81843463,3.2343686 L9.81843463,3.2343686 C10.0149274,3.2343686 10.2196936,3.16916373 10.3499993,3.06566394 L10.3499993,3.06566394 L10.2196936,2.70134466 C10.0893878,2.76758453 9.9590821,2.80380946 9.85566484,2.80380946 L9.85566484,2.80380946 C9.66020622,2.80380946 9.55782313,2.67339971 9.55782313,2.4777851 L9.55782313,2.4777851 L9.55782313,1.55249693 L10.2848465,1.55249693 L10.2848465,1.2161226 L9.55782313,1.2161226 L9.55782313,0.617893778 L9.15552999,0.617893778 Z M16.3978407,2.17867069 C16.3978407,2.77586451 16.8270223,3.20642366 17.358587,3.20642366 L17.358587,3.20642366 C17.6202327,3.20642366 17.8518874,3.10395886 17.9832273,2.90730925 L17.9832273,2.90730925 L17.9832273,3.14121879 L18.3844862,3.14121879 L18.3844862,2.20661564 L18.3844862,1.2161226 L17.9832273,1.2161226 L17.9832273,1.45003213 C17.8518874,1.28132747 17.6202327,1.15091772 17.358587,1.15091772 L17.358587,1.15091772 C16.7990997,1.15091772 16.3978407,1.58044187 16.3978407,2.17867069 L16.3978407,2.17867069 Z M16.7990997,2.20661564 C16.7990997,1.84229636 17.0317885,1.54318195 17.4237399,1.54318195 L17.4237399,1.54318195 C17.7877687,1.54318195 18.0204575,1.84229636 18.0204575,2.20661564 L18.0204575,2.20661564 C18.0204575,2.60819484 17.7877687,2.87004932 17.4237399,2.87004932 L17.4237399,2.87004932 C17.0224809,2.87004932 16.7990997,2.57093492 16.7990997,2.20661564 L16.7990997,2.20661564 Z M4.29388462,2.17867069 C4.29388462,2.77586451 4.72306625,3.20642366 5.25566513,3.20642366 L5.25566513,3.20642366 C5.51627663,3.20642366 5.74999963,3.10395886 5.88030538,2.90730925 L5.88030538,2.90730925 L5.88030538,3.14121879 L6.28259852,3.14121879 L6.28259852,2.20661564 L6.28259852,1.2161226 L5.88030538,1.2161226 L5.88030538,1.45003213 C5.74999963,1.28132747 5.51627663,1.15091772 5.25566513,1.15091772 L5.25566513,1.15091772 C4.69514359,1.15091772 4.29388462,1.58044187 4.29388462,2.17867069 L4.29388462,2.17867069 Z M4.65791337,2.20661564 C4.65791337,1.84229636 4.89163638,1.54318195 5.28358779,1.54318195 L5.28358779,1.54318195 C5.64761655,1.54318195 5.88030538,1.84229636 5.88030538,2.20661564 L5.88030538,2.20661564 C5.88030538,2.60819484 5.64761655,2.87004932 5.28358779,2.87004932 L5.28358779,2.87004932 C4.91955904,2.87004932 4.65791337,2.57093492 4.65791337,2.20661564 L4.65791337,2.20661564 Z M2.4189297,1.515237 C2.28758978,1.28132747 2.05490095,1.15091772 1.75602507,1.15091772 L1.75602507,1.15091772 C1.55953227,1.15091772 1.32684344,1.2161226 1.15827331,1.45003213 L1.15827331,1.45003213 L1.15827331,1.2161226 L0.75701434,1.2161226 L0.75701434,3.20642366 L1.15827331,3.20642366 L1.15827331,2.08552088 C1.15827331,1.75846152 1.3547661,1.55249693 1.65364198,1.55249693 L1.65364198,1.55249693 C1.95148369,1.55249693 2.08282361,1.74914654 2.08282361,2.08552088 L2.08282361,2.08552088 L2.08282361,3.20642366 L2.48408258,3.20642366 L2.48408258,2.08552088 C2.48408258,1.75846152 2.68057537,1.55249693 2.97841708,1.55249693 L2.97841708,1.55249693 C3.27729296,1.55249693 3.44482892,1.74914654 3.44482892,2.08552088 L3.44482892,2.08552088 L3.44482892,3.20642366 L3.86470299,3.20642366 L3.86470299,1.94476115 C3.86470299,1.47797708 3.60305732,1.18817765 3.109757,1.15091772 L3.109757,1.15091772 C2.84811133,1.15091772 2.61438832,1.2161226 2.4189297,1.515237 L2.4189297,1.515237 Z M19.3741894,1.47797708 L19.3741894,1.24406754 L18.9729304,1.24406754 L18.9729304,3.2343686 L19.3741894,3.2343686 L19.3741894,2.11346582 C19.3741894,1.78640647 19.5417254,1.58044187 19.803371,1.58044187 L19.803371,1.58044187 C19.9057541,1.58044187 19.970907,1.58044187 20.0650167,1.64564675 L20.0650167,1.64564675 L20.1953225,1.28132747 C20.1022469,1.17886267 19.970907,1.17886267 19.9057541,1.17886267 L19.9057541,1.17886267 C19.6730653,1.17886267 19.4765725,1.28132747 19.3741894,1.47797708 L19.3741894,1.47797708 Z M14.3812041,2.20661564 C14.3812041,2.80380946 14.7824631,3.2343686 15.4081375,3.2343686 L15.4081375,3.2343686 C15.7070134,3.2343686 15.902472,3.16916373 16.0989648,3.00045907 L16.0989648,3.00045907 L15.902472,2.70134466 C15.734936,2.80380946 15.5756735,2.87004932 15.3709073,2.87004932 L15.3709073,2.87004932 C15.0441088,2.87004932 14.7731555,2.60819484 14.7731555,2.20661564 L14.7731555,2.20661564 C14.7731555,1.80503643 15.0348012,1.54318195 15.3709073,1.54318195 L15.3709073,1.54318195 C15.5663659,1.54318195 15.734936,1.60838682 15.902472,1.71085162 L15.902472,1.71085162 L16.0989648,1.41277221 C15.902472,1.24406754 15.6977058,1.17886267 15.4081375,1.17886267 L15.4081375,1.17886267 C14.7824631,1.17886267 14.3812041,1.6187368 14.3812041,2.20661564 L14.3812041,2.20661564 Z M13.421492,1.47797708 L13.421492,1.24406754 L13.0191988,1.24406754 L13.0191988,3.2343686 L13.421492,3.2343686 L13.421492,2.11346582 C13.421492,1.78640647 13.5890279,1.58044187 13.8506736,1.58044187 L13.8506736,1.58044187 C13.9530567,1.58044187 14.0182095,1.58044187 14.1112851,1.64564675 L14.1112851,1.64564675 L14.2415908,1.28132747 C14.1474811,1.17886267 14.0182095,1.17886267 13.9530567,1.17886267 L13.9530567,1.17886267 C13.7193337,1.17886267 13.523875,1.28132747 13.421492,1.47797708 L13.421492,1.47797708 Z M10.6395677,2.20661564 C10.6395677,2.8327894 11.0408266,3.2343686 11.6292708,3.2343686 L11.6292708,3.2343686 C11.9271126,3.2343686 12.1887582,3.16916373 12.4214471,2.97251412 L12.4214471,2.97251412 L12.2259884,2.67339971 C12.0584525,2.80380946 11.8619597,2.87004932 11.6654669,2.87004932 L11.6654669,2.87004932 C11.4048554,2.87004932 11.1059795,2.70134466 11.0687493,2.3742853 L11.0687493,2.3742853 L12.552787,2.3742853 L12.552787,2.20661564 C12.5341719,1.58044187 12.1701431,1.17886267 11.600314,1.17886267 L11.600314,1.17886267 C11.0408266,1.17886267 10.6395677,1.60838682 10.6395677,2.20661564 L10.6395677,2.20661564 Z M11.600314,1.54318195 C11.8991899,1.54318195 12.0956827,1.73983156 12.1329129,2.03791097 L12.1329129,2.03791097 L11.0780568,2.03791097 C11.1059795,1.74914654 11.3024723,1.54318195 11.600314,1.54318195 L11.600314,1.54318195 Z M6.81416324,1.81435141 C6.81416324,2.14141077 7.04685207,2.34634036 7.4760337,2.3742853 L7.4760337,2.3742853 L7.67149232,2.41154523 C7.90521532,2.44880516 8.03552107,2.51504503 8.03552107,2.64545477 L8.03552107,2.64545477 C8.03552107,2.81415944 7.86798511,2.90730925 7.56910923,2.90730925 L7.56910923,2.90730925 C7.27126752,2.90730925 7.07477473,2.80380946 6.9062046,2.71169464 L6.9062046,2.71169464 L6.71178015,3.00977405 C7.00962186,3.20642366 7.3364204,3.27162853 7.56910923,3.27162853 L7.56910923,3.27162853 C8.12963078,3.27162853 8.46573687,3.00977405 8.46573687,2.64545477 L8.46573687,2.64545477 C8.46573687,2.31839542 8.23201387,2.11346582 7.80283224,2.04826095 L7.80283224,2.04826095 L7.60633944,2.01100102 C7.41088082,1.9727061 7.24231069,1.94476115 7.24231069,1.81435141 L7.24231069,1.81435141 C7.24231069,1.68394167 7.41088082,1.58044187 7.64356966,1.58044187 L7.64356966,1.58044187 C7.90521532,1.58044187 8.13893833,1.68394167 8.26924408,1.74914654 L8.26924408,1.74914654 L8.400584,1.38482726 C8.2040912,1.25338252 7.90521532,1.18817765 7.60633944,1.18817765 L7.60633944,1.18817765 C7.11200494,1.18817765 6.81416324,1.42208719 6.81416324,1.81435141 L6.81416324,1.81435141 Z" id="path-3"></path>
        <polygon id="path-5" points="0.693929812 0.717253582 7.83282324 0.717253582 7.83282324 12.4003105 0.693929812 12.4003105"></polygon>
        <path d="M0.5698291,7.58032501 C0.5698291,11.6892669 3.87297637,14.9950503 7.97864158,14.9950503 L7.97864158,14.9950503 C9.69536809,14.9950503 11.282823,14.3978565 12.5786413,13.4073635 L12.5786413,13.4073635 C10.815377,12.0442712 9.7325983,9.92356038 9.7325983,7.58032501 L9.7325983,7.58032501 C9.7325983,5.19775972 10.8526072,3.11534384 12.5786413,1.75225153 L12.5786413,1.75225153 C11.3190191,0.762793492 9.7325983,0.165599673 7.97864158,0.165599673 L7.97864158,0.165599673 C3.88228393,0.165599673 0.5698291,3.47034814 0.5698291,7.58032501 L0.5698291,7.58032501 Z" id="path-7"></path>
        <path d="M0.122032366,1.75225153 C1.8491006,3.11534384 2.96807535,5.19775972 2.96807535,7.58032501 L2.96807535,7.58032501 C2.96807535,9.93287536 1.83979305,12.0525512 0.122032366,13.4073635 L0.122032366,13.4073635 C1.4188848,14.3978565 3.00530556,14.9950503 4.72306625,14.9950503 L4.72306625,14.9950503 C8.82873145,14.9950503 12.1318787,11.6799519 12.1318787,7.58032501 L12.1318787,7.58032501 C12.1318787,3.47034814 8.82873145,0.165599673 4.72306625,0.165599673 L4.72306625,0.165599673 C2.96807535,0.165599673 1.38268876,0.762793492 0.122032366,1.75225153 L0.122032366,1.75225153 Z" id="path-9"></path>
    </defs>
    <g id="Dizajn" stroke="none" stroke-width="1" fill="none" fill-rule="evenodd">
        <g id="Početna-v1--" transform="translate(-1330.000000, -4405.000000)">
            <g id="Footer" transform="translate(0.000000, 4151.000000)">
                <g id="Mogućnosti-plaćanja" transform="translate(1253.000000, 73.000000)">
                    <g id="Group-44" transform="translate(0.000000, 179.000000)">
                        <g id="Cards" transform="translate(76.000000, 1.000000)">
                            <g id="Mastercard" transform="translate(0.604306, 0.685917)">
                                <g id="Group-8" transform="translate(0.000000, -0.000000)" fill="#223343">
                                    <path d="M1.01307548,2.41827272 C1.01307548,1.32531488 1.90970312,0.429006652 3.0007552,0.429006652 L38.740726,0.429006652 C39.8328122,0.429006652 40.7284057,1.32531488 40.7284057,2.41827272 L40.7284057,24.9160232 C40.7284057,26.0079461 39.8328122,26.9052893 38.740726,26.9052893 L3.0007552,26.9052893 C1.90970312,26.9052893 1.01307548,26.0079461 1.01307548,24.9160232 L1.01307548,2.41827272 Z" id="Fill-4"></path>
                                    <path d="M1.01307548,2.41827272 C1.01307548,1.32531488 1.90970312,0.429006652 3.0007552,0.429006652 L38.740726,0.429006652 C39.8328122,0.429006652 40.7284057,1.32531488 40.7284057,2.41827272 L40.7284057,24.9160232 C40.7284057,26.0079461 39.8328122,26.9052893 38.740726,26.9052893 L3.0007552,26.9052893 C1.90970312,26.9052893 1.01307548,26.0079461 1.01307548,24.9160232 L1.01307548,2.41827272 Z" id="Fill-6"></path>
                                </g>
                                <g id="Group-11">
                                    <mask id="mask-2" fill="white">
                                        <use xlink:href="#path-1"></use>
                                    </mask>
                                    <g id="Clip-10"></g>
                                    <path d="M1.01307548,2.41827272 C1.01307548,1.32531488 1.90970312,0.429006652 3.0007552,0.429006652 L38.740726,0.429006652 C39.8328122,0.429006652 40.7284057,1.32531488 40.7284057,2.41827272 L40.7284057,24.9160232 C40.7284057,26.0079461 39.8328122,26.9052893 38.740726,26.9052893 L3.0007552,26.9052893 C1.90970312,26.9052893 1.01307548,26.0079461 1.01307548,24.9160232 L1.01307548,2.41827272 Z" id="Fill-9" fill="#223343" mask="url(#mask-2)"></path>
                                </g>
                                <g id="Group-14" transform="translate(9.307553, 19.664961)">
                                    <mask id="mask-4" fill="white">
                                        <use xlink:href="#path-3"></use>
                                    </mask>
                                    <g id="Clip-13"></g>
                                    <polygon id="Fill-12" fill="#FEFEFE" mask="url(#mask-4)" points="-0.894559296 4.96074519 24.9256279 4.96074519 24.9256279 -1.23061257 -0.894559296 -1.23061257"></polygon>
                                </g>
                                <g id="Group-17" transform="translate(16.546762, 5.174990)">
                                    <mask id="mask-6" fill="white">
                                        <use xlink:href="#path-5"></use>
                                    </mask>
                                    <g id="Clip-16"></g>
                                    <polygon id="Fill-15" fill="#F06022" mask="url(#mask-6)" points="-0.957643824 14.0532022 9.49370443 14.0532022 9.49370443 -0.93563815 -0.957643824 -0.93563815"></polygon>
                                </g>
                                <g id="Group-20" transform="translate(8.273381, 4.139992)">
                                    <mask id="mask-8" fill="white">
                                        <use xlink:href="#path-7"></use>
                                    </mask>
                                    <g id="Clip-19"></g>
                                    <polygon id="Fill-18" fill="#E91D25" mask="url(#mask-8)" points="-1.12000892 16.675887 14.1929847 16.675887 14.1929847 -1.48832706 -1.12000892 -1.48832706"></polygon>
                                </g>
                                <g id="Group-23" transform="translate(20.683452, 4.139992)">
                                    <mask id="mask-10" fill="white">
                                        <use xlink:href="#path-9"></use>
                                    </mask>
                                    <g id="Clip-22"></g>
                                    <polygon id="Fill-21" fill="#F59E1E" mask="url(#mask-10)" points="-1.52023372 16.675887 13.7927599 16.675887 13.7927599 -1.48832706 -1.52023372 -1.48832706"></polygon>
                                </g>
                            </g>
                        </g>
                    </g>
                </g>
            </g>
        </g>
    </g>
</svg>