<?xml version="1.0" encoding="UTF-8"?>
<svg width="42px" height="27px" viewBox="0 0 42 27" version="1.1" xmlns="http://www.w3.org/2000/svg" xmlns:xlink="http://www.w3.org/1999/xlink">
    <title>99A5863D-55E2-4F83-AC32-A8F14B1C348E</title>
    <defs>
        <path d="M2.58336315,0.428489153 C1.68776968,0.428489153 0.960746342,1.15816271 0.960746342,2.05343594 L0.960746342,2.05343594 L0.960746342,25.279825 C0.960746342,26.1771682 1.68776968,26.9047718 2.58336315,26.9047718 L2.58336315,26.9047718 L39.0803482,26.9047718 C39.9759417,26.9047718 40.7040875,26.1771682 40.7040875,25.279825 L40.7040875,25.279825 L40.7040875,2.05343594 C40.7133068,1.15816271 39.9852493,0.428489153 39.0803482,0.428489153 L39.0803482,0.428489153 L2.58336315,0.428489153 Z M23.1696028,16.2111729 C23.5232899,16.2111729 23.8687035,16.1552831 24.1955021,15.9876134 L24.1955021,15.9876134 C24.7839463,15.680219 24.8584067,15.0819902 24.3444229,14.671096 L24.3444229,14.671096 C24.093119,14.4754814 23.8035506,14.3160917 23.5150165,14.167052 L23.5150165,14.167052 C23.0392971,13.9145125 22.5635777,13.661973 22.151977,13.3162837 L22.151977,13.3162837 C20.9668152,12.3175106 21.1157361,10.9264734 21.7600256,9.99187024 L21.7600256,9.99187024 C22.2926245,9.22597176 23.0672198,8.81611257 23.9441981,8.59151801 L23.9441981,8.59151801 C24.2234247,8.51699816 24.512993,8.49836819 24.8025614,8.44247831 L24.8025614,8.44247831 C24.8490991,8.43316332 24.8863294,8.42384834 24.9235596,8.40521838 L24.9235596,8.40521838 L25.866725,8.40521838 C26.136644,8.45179329 26.4169048,8.48905321 26.687858,8.5449431 L26.687858,8.5449431 C26.9577771,8.60083299 27.2194227,8.68466783 27.4800342,8.75918768 L27.4800342,8.75918768 C27.5462213,8.77885264 27.6020666,8.80576259 27.676527,8.83474253 L27.676527,8.83474253 C27.5358795,9.49714122 27.3962662,10.1512599 27.2566529,10.8043436 L27.2566529,10.8043436 C26.939162,10.7018788 26.6320127,10.5900991 26.3145217,10.5145442 L26.3145217,10.5145442 C25.7446926,10.3748195 25.1572826,10.3189296 24.5874535,10.4679693 L24.5874535,10.4679693 C24.3826873,10.5248942 24.1675794,10.6459889 24.009351,10.7857137 L24.009351,10.7857137 C23.7290902,11.0289382 23.7290902,11.3746275 23.9990093,11.627167 L23.9990093,11.627167 C24.176887,11.7948367 24.3919949,11.9449114 24.6060686,12.0660061 L24.6060686,12.0660061 C25.0362844,12.3175106 25.4840811,12.5327902 25.9039552,12.8029247 L25.9039552,12.8029247 C26.4737843,13.157929 26.9495037,13.6060831 27.1346206,14.2788318 L27.1346206,14.2788318 C27.4055738,15.2506948 27.1077321,16.5475473 26.0249534,17.3331107 L26.0249534,17.3331107 C25.399279,17.7812648 24.6908707,18.0234544 23.9441981,18.1176392 L23.9441981,18.1176392 C22.7590363,18.2666789 21.6017972,18.1548991 20.4631732,17.7626349 L20.4631732,17.7626349 C20.3969861,17.7440049 20.3411408,17.715025 20.2573728,17.677765 L20.2573728,17.677765 C20.4073278,16.9957014 20.5469411,16.3136377 20.6968962,15.6139791 L20.6968962,15.6139791 C20.7889375,15.652274 20.8737397,15.689534 20.9575077,15.7267939 L20.9575077,15.7267939 C21.6369591,16.0528183 22.3505381,16.2122079 23.0992791,16.2122079 L23.0992791,16.2122079 C23.1220309,16.2122079 23.1458169,16.2122079 23.1696028,16.2111729 L23.1696028,16.2111729 Z M9.75948679,8.56357307 C10.3944688,8.56357307 10.8329579,8.91857736 10.9539561,9.54371613 L10.9539561,9.54371613 C11.2817889,11.2814777 11.6075532,13.0088893 11.9343518,14.7456158 L11.9343518,14.7456158 C11.9436593,14.8025407 11.9622744,14.8677456 12.0088122,14.9422655 L12.0088122,14.9422655 C12.8485603,12.8215546 13.6883085,10.6925639 14.5290908,8.58220303 L14.5290908,8.58220303 L17.0845313,8.58220303 C17.0379935,8.70329779 17.0007633,8.80576259 16.9542255,8.8989124 L16.9542255,8.8989124 C15.704945,11.8879865 14.4535962,14.8760256 13.2022474,17.8650997 L13.2022474,17.8650997 C13.1660513,17.9861944 13.110206,18.0338043 12.9788661,18.0338043 L12.9788661,18.0338043 C12.2239201,18.0234544 11.4679399,18.0234544 10.7119598,18.0338043 L10.7119598,18.0338043 C10.6002691,18.0338043 10.5526972,18.0048244 10.515467,17.8837296 L10.515467,17.8837296 C9.88151916,15.4183645 9.23722963,12.9612794 8.61258938,10.4969492 L8.61258938,10.4969492 C8.50089874,10.0570751 8.27648329,9.74864572 7.85660921,9.56234609 L7.85660921,9.56234609 C7.16578192,9.2539167 6.43772441,9.03967212 5.70035935,8.86268747 L5.70035935,8.86268747 C5.67243669,8.85233749 5.63520648,8.84302251 5.60728382,8.83474253 L5.60728382,8.83474253 L5.60728382,8.76953766 C5.62589892,8.58220303 5.74689712,8.56357307 5.90512552,8.56357307 L5.90512552,8.56357307 C6.33534132,8.56667806 6.76348878,8.56771306 7.19060206,8.56771306 L7.19060206,8.56771306 C8.04689697,8.56771306 8.90112353,8.56357307 9.75948679,8.56357307 L9.75948679,8.56357307 Z M27.172885,17.8930446 C28.3673543,15.0354153 29.5618237,12.1871009 30.756293,9.32843655 L30.756293,9.32843655 C30.9610592,8.84302251 31.3343955,8.59151801 31.8566527,8.59151801 L31.8566527,8.59151801 L33.9012119,8.59151801 C34.5537748,11.7389468 35.2166794,14.8760256 35.8702765,18.0338043 L35.8702765,18.0338043 C35.1039546,18.0234544 34.3665895,18.0234544 33.6116435,18.0234544 L33.6116435,18.0234544 C33.5371831,17.68708 33.4627227,17.3517407 33.3965356,17.0143314 L33.3965356,17.0143314 C33.3127677,16.6220671 33.3231094,16.6220671 32.9125429,16.6220671 L32.9125429,16.6220671 L30.3364189,16.6220671 C30.2154207,16.6220671 30.1595754,16.6593271 30.121311,16.7721418 L30.121311,16.7721418 C29.9910053,17.1550911 29.851392,17.5287253 29.7107445,17.9116746 L29.7107445,17.9116746 C29.6921294,17.9675645 29.617669,18.0338043 29.5711312,18.0338043 L29.5711312,18.0338043 C28.7593057,18.0420843 27.9464461,18.0420843 27.1170396,18.0420843 L27.1170396,18.0420843 C27.1346206,17.9861944 27.1542699,17.9396195 27.172885,17.8930446 L27.172885,17.8930446 Z M18.1580024,8.59151801 L20.5934789,8.59151801 C20.528326,8.8989124 20.4631732,9.20734179 20.4073278,9.5064562 L20.4073278,9.5064562 C19.8199178,12.2802507 19.222166,15.0447302 18.634756,17.8185248 L18.634756,17.8185248 C18.5975258,17.9861944 18.5313387,18.0338043 18.3451877,18.0338043 L18.3451877,18.0338043 C17.682283,18.0234544 17.0100709,18.0338043 16.3471662,18.0338043 L16.3471662,18.0338043 L16.1330925,18.0338043 C16.8146122,14.8677456 17.4868244,11.7296318 18.1580024,8.59151801 L18.1580024,8.59151801 Z" id="path-1"></path>
        <linearGradient x1="49.9986509%" y1="0.00163871623%" x2="49.9986509%" y2="100.00145%" id="linearGradient-3">
            <stop stop-color="#29398E" offset="0%"></stop>
            <stop stop-color="#25255D" offset="100%"></stop>
        </linearGradient>
        <path d="M0.886285915,4.33974642 L2.92153758,4.33974642 C2.67850702,3.15363876 2.43547646,2.00479104 2.1924459,0.847663324 L2.1924459,0.847663324 C2.18313835,0.837313344 2.1738308,0.837313344 2.15521569,0.837313344 L2.15521569,0.837313344 C1.73534162,1.99547605 1.31546754,3.16295375 0.886285915,4.33974642" id="path-4"></path>
        <linearGradient x1="49.9784654%" y1="0.00642730496%" x2="49.9784654%" y2="99.9982624%" id="linearGradient-6">
            <stop stop-color="#29398E" offset="0%"></stop>
            <stop stop-color="#25255D" offset="100%"></stop>
        </linearGradient>
    </defs>
    <g id="Dizajn" stroke="none" stroke-width="1" fill="none" fill-rule="evenodd">
        <g id="Početna-v1--" transform="translate(-1462.000000, -4405.000000)">
            <g id="Footer" transform="translate(0.000000, 4151.000000)">
                <g id="Mogućnosti-plaćanja" transform="translate(1253.000000, 73.000000)">
                    <g id="Group-44" transform="translate(0.000000, 179.000000)">
                        <g id="Cards" transform="translate(76.000000, 1.000000)">
                            <g id="Visa" transform="translate(132.978398, 0.685917)">
                                <g>
                                    <mask id="mask-2" fill="white">
                                        <use xlink:href="#path-1"></use>
                                    </mask>
                                    <g id="Clip-47"></g>
                                    <path d="M2.58336315,0.428489153 C1.68776968,0.428489153 0.960746342,1.15816271 0.960746342,2.05343594 L0.960746342,2.05343594 L0.960746342,25.279825 C0.960746342,26.1771682 1.68776968,26.9047718 2.58336315,26.9047718 L2.58336315,26.9047718 L39.0803482,26.9047718 C39.9759417,26.9047718 40.7040875,26.1771682 40.7040875,25.279825 L40.7040875,25.279825 L40.7040875,2.05343594 C40.7133068,1.15816271 39.9852493,0.428489153 39.0803482,0.428489153 L39.0803482,0.428489153 L2.58336315,0.428489153 Z M23.1696028,16.2111729 C23.5232899,16.2111729 23.8687035,16.1552831 24.1955021,15.9876134 L24.1955021,15.9876134 C24.7839463,15.680219 24.8584067,15.0819902 24.3444229,14.671096 L24.3444229,14.671096 C24.093119,14.4754814 23.8035506,14.3160917 23.5150165,14.167052 L23.5150165,14.167052 C23.0392971,13.9145125 22.5635777,13.661973 22.151977,13.3162837 L22.151977,13.3162837 C20.9668152,12.3175106 21.1157361,10.9264734 21.7600256,9.99187024 L21.7600256,9.99187024 C22.2926245,9.22597176 23.0672198,8.81611257 23.9441981,8.59151801 L23.9441981,8.59151801 C24.2234247,8.51699816 24.512993,8.49836819 24.8025614,8.44247831 L24.8025614,8.44247831 C24.8490991,8.43316332 24.8863294,8.42384834 24.9235596,8.40521838 L24.9235596,8.40521838 L25.866725,8.40521838 C26.136644,8.45179329 26.4169048,8.48905321 26.687858,8.5449431 L26.687858,8.5449431 C26.9577771,8.60083299 27.2194227,8.68466783 27.4800342,8.75918768 L27.4800342,8.75918768 C27.5462213,8.77885264 27.6020666,8.80576259 27.676527,8.83474253 L27.676527,8.83474253 C27.5358795,9.49714122 27.3962662,10.1512599 27.2566529,10.8043436 L27.2566529,10.8043436 C26.939162,10.7018788 26.6320127,10.5900991 26.3145217,10.5145442 L26.3145217,10.5145442 C25.7446926,10.3748195 25.1572826,10.3189296 24.5874535,10.4679693 L24.5874535,10.4679693 C24.3826873,10.5248942 24.1675794,10.6459889 24.009351,10.7857137 L24.009351,10.7857137 C23.7290902,11.0289382 23.7290902,11.3746275 23.9990093,11.627167 L23.9990093,11.627167 C24.176887,11.7948367 24.3919949,11.9449114 24.6060686,12.0660061 L24.6060686,12.0660061 C25.0362844,12.3175106 25.4840811,12.5327902 25.9039552,12.8029247 L25.9039552,12.8029247 C26.4737843,13.157929 26.9495037,13.6060831 27.1346206,14.2788318 L27.1346206,14.2788318 C27.4055738,15.2506948 27.1077321,16.5475473 26.0249534,17.3331107 L26.0249534,17.3331107 C25.399279,17.7812648 24.6908707,18.0234544 23.9441981,18.1176392 L23.9441981,18.1176392 C22.7590363,18.2666789 21.6017972,18.1548991 20.4631732,17.7626349 L20.4631732,17.7626349 C20.3969861,17.7440049 20.3411408,17.715025 20.2573728,17.677765 L20.2573728,17.677765 C20.4073278,16.9957014 20.5469411,16.3136377 20.6968962,15.6139791 L20.6968962,15.6139791 C20.7889375,15.652274 20.8737397,15.689534 20.9575077,15.7267939 L20.9575077,15.7267939 C21.6369591,16.0528183 22.3505381,16.2122079 23.0992791,16.2122079 L23.0992791,16.2122079 C23.1220309,16.2122079 23.1458169,16.2122079 23.1696028,16.2111729 L23.1696028,16.2111729 Z M9.75948679,8.56357307 C10.3944688,8.56357307 10.8329579,8.91857736 10.9539561,9.54371613 L10.9539561,9.54371613 C11.2817889,11.2814777 11.6075532,13.0088893 11.9343518,14.7456158 L11.9343518,14.7456158 C11.9436593,14.8025407 11.9622744,14.8677456 12.0088122,14.9422655 L12.0088122,14.9422655 C12.8485603,12.8215546 13.6883085,10.6925639 14.5290908,8.58220303 L14.5290908,8.58220303 L17.0845313,8.58220303 C17.0379935,8.70329779 17.0007633,8.80576259 16.9542255,8.8989124 L16.9542255,8.8989124 C15.704945,11.8879865 14.4535962,14.8760256 13.2022474,17.8650997 L13.2022474,17.8650997 C13.1660513,17.9861944 13.110206,18.0338043 12.9788661,18.0338043 L12.9788661,18.0338043 C12.2239201,18.0234544 11.4679399,18.0234544 10.7119598,18.0338043 L10.7119598,18.0338043 C10.6002691,18.0338043 10.5526972,18.0048244 10.515467,17.8837296 L10.515467,17.8837296 C9.88151916,15.4183645 9.23722963,12.9612794 8.61258938,10.4969492 L8.61258938,10.4969492 C8.50089874,10.0570751 8.27648329,9.74864572 7.85660921,9.56234609 L7.85660921,9.56234609 C7.16578192,9.2539167 6.43772441,9.03967212 5.70035935,8.86268747 L5.70035935,8.86268747 C5.67243669,8.85233749 5.63520648,8.84302251 5.60728382,8.83474253 L5.60728382,8.83474253 L5.60728382,8.76953766 C5.62589892,8.58220303 5.74689712,8.56357307 5.90512552,8.56357307 L5.90512552,8.56357307 C6.33534132,8.56667806 6.76348878,8.56771306 7.19060206,8.56771306 L7.19060206,8.56771306 C8.04689697,8.56771306 8.90112353,8.56357307 9.75948679,8.56357307 L9.75948679,8.56357307 Z M27.172885,17.8930446 C28.3673543,15.0354153 29.5618237,12.1871009 30.756293,9.32843655 L30.756293,9.32843655 C30.9610592,8.84302251 31.3343955,8.59151801 31.8566527,8.59151801 L31.8566527,8.59151801 L33.9012119,8.59151801 C34.5537748,11.7389468 35.2166794,14.8760256 35.8702765,18.0338043 L35.8702765,18.0338043 C35.1039546,18.0234544 34.3665895,18.0234544 33.6116435,18.0234544 L33.6116435,18.0234544 C33.5371831,17.68708 33.4627227,17.3517407 33.3965356,17.0143314 L33.3965356,17.0143314 C33.3127677,16.6220671 33.3231094,16.6220671 32.9125429,16.6220671 L32.9125429,16.6220671 L30.3364189,16.6220671 C30.2154207,16.6220671 30.1595754,16.6593271 30.121311,16.7721418 L30.121311,16.7721418 C29.9910053,17.1550911 29.851392,17.5287253 29.7107445,17.9116746 L29.7107445,17.9116746 C29.6921294,17.9675645 29.617669,18.0338043 29.5711312,18.0338043 L29.5711312,18.0338043 C28.7593057,18.0420843 27.9464461,18.0420843 27.1170396,18.0420843 L27.1170396,18.0420843 C27.1346206,17.9861944 27.1542699,17.9396195 27.172885,17.8930446 L27.172885,17.8930446 Z M18.1580024,8.59151801 L20.5934789,8.59151801 C20.528326,8.8989124 20.4631732,9.20734179 20.4073278,9.5064562 L20.4073278,9.5064562 C19.8199178,12.2802507 19.222166,15.0447302 18.634756,17.8185248 L18.634756,17.8185248 C18.5975258,17.9861944 18.5313387,18.0338043 18.3451877,18.0338043 L18.3451877,18.0338043 C17.682283,18.0234544 17.0100709,18.0338043 16.3471662,18.0338043 L16.3471662,18.0338043 L16.1330925,18.0338043 C16.8146122,14.8677456 17.4868244,11.7296318 18.1580024,8.59151801 L18.1580024,8.59151801 Z" id="Fill-46" fill="url(#linearGradient-3)" mask="url(#mask-2)"></path>
                                </g>
                                <g id="Group-51" transform="translate(29.991005, 10.349980)">
                                    <mask id="mask-5" fill="white">
                                        <use xlink:href="#path-4"></use>
                                    </mask>
                                    <g id="Clip-50"></g>
                                    <path d="M0.886285915,4.33974642 L2.92153758,4.33974642 C2.67850702,3.15363876 2.43547646,2.00479104 2.1924459,0.847663324 L2.1924459,0.847663324 C2.18313835,0.837313344 2.1738308,0.837313344 2.15521569,0.837313344 L2.15521569,0.837313344 C1.73534162,1.99547605 1.31546754,3.16295375 0.886285915,4.33974642" id="Fill-49" fill="url(#linearGradient-6)" mask="url(#mask-5)"></path>
                                </g>
                            </g>
                        </g>
                    </g>
                </g>
            </g>
        </g>
    </g>
</svg>