<?xml version="1.0" encoding="UTF-8"?>
<svg width="42px" height="27px" viewBox="0 0 42 27" version="1.1" xmlns="http://www.w3.org/2000/svg" xmlns:xlink="http://www.w3.org/1999/xlink">
    <title>F91F8BE8-4A09-424F-99A8-E19817A36DA1</title>
    <g id="Dizajn" stroke="none" stroke-width="1" fill="none" fill-rule="evenodd">
        <g id="Početna-v1--" transform="translate(-1417.000000, -4405.000000)" fill="#0769AA">
            <g id="Footer" transform="translate(0.000000, 4151.000000)">
                <g id="Mogućnosti-plaćanja" transform="translate(1253.000000, 73.000000)">
                    <g id="Group-44" transform="translate(0.000000, 179.000000)">
                        <g id="Cards" transform="translate(76.000000, 1.000000)">
                            <g id="Diners" transform="translate(88.394363, 0.685917)">
                                <path d="M27.8026195,18.7801414 C26.3837347,20.1059737 24.4901647,20.8718722 22.604868,20.8718722 L22.5676378,20.8718722 L19.3575661,20.8718722 C15.3728991,20.8718722 12.1349047,17.6685536 12.1349047,13.7272814 C12.1349047,9.59039454 15.2519009,6.46159572 19.3854888,6.46159572 L22.5769454,6.46159572 C24.5087798,6.46159572 26.4023498,7.19954926 27.793312,8.47880673 C29.2680421,9.84293404 30.0798676,11.7007554 30.0798676,13.7272814 C30.07056,15.6140826 29.2680421,17.4066991 27.8026195,18.7801414 M39.2054066,0.428592652 L2.70945564,0.428592652 C1.81386217,0.428592652 1.08683884,1.15723121 1.08683884,2.05353944 L1.08683884,25.2799285 C1.08683884,26.1762367 1.81386217,26.9048753 2.70945564,26.9048753 L39.2054066,26.9048753 C40.1020342,26.9048753 40.8300917,26.1762367 40.8300917,25.2799285 L40.8300917,2.05353944 C40.8300917,1.15723121 40.1020342,0.428592652 39.2054066,0.428592652" id="Fill-41"></path>
                                <path d="M21.8379256,17.3231747 L21.8379256,9.98296926 C23.3126558,10.5522181 24.3582043,11.9815503 24.3582043,13.653072 C24.3582043,15.3245937 23.3126558,16.7539259 21.8379256,17.3231747 L21.8379256,17.3231747 Z M19.0291129,17.3231747 C17.5543828,16.7539259 16.5098684,15.3339087 16.5098684,13.653072 C16.5098684,11.9815503 17.5543828,10.5522181 19.0291129,9.98296926 L19.0291129,17.3231747 Z M20.4293826,7.8912384 C17.256541,7.8912384 14.6711096,10.4776983 14.6711096,13.653072 C14.6711096,16.8284457 17.256541,19.4149056 20.4293826,19.4149056 C23.6022241,19.4149056 26.1866465,16.8284457 26.1866465,13.653072 C26.195929,10.4776983 23.6115317,7.8912384 20.4293826,7.8912384 L20.4293826,7.8912384 Z" id="Fill-43"></path>
                            </g>
                        </g>
                    </g>
                </g>
            </g>
        </g>
    </g>
</svg>