<?xml version="1.0" encoding="UTF-8"?>
<svg width="42px" height="27px" viewBox="0 0 42 27" version="1.1" xmlns="http://www.w3.org/2000/svg" xmlns:xlink="http://www.w3.org/1999/xlink">
    <title>B1692A16-600D-44A5-8A92-A481DE412069</title>
    <defs>
        <path d="M11.360386,0.842488334 L11.360386,1.44071715 L10.959127,1.44071715 L10.959127,1.84229636 L11.360386,1.84229636 L11.360386,2.76758453 C11.360386,3.26231355 11.5196485,3.52313303 12.0522474,3.52313303 L12.0522474,3.52313303 C12.2477061,3.52313303 12.4441988,3.45792816 12.6117348,3.35546336 L12.6117348,3.35546336 L12.4814291,2.99114409 C12.3407816,3.05634896 12.2104758,3.09360888 12.0791359,3.09360888 L12.0791359,3.09360888 C11.8464471,3.09360888 11.7812942,2.96319914 11.7812942,2.76758453 L11.7812942,2.76758453 L11.7812942,1.84229636 L12.5093517,1.84229636 L12.5186593,1.44071715 L11.7906018,1.44071715 L11.7906018,0.842488334 L11.360386,0.842488334 Z M15.1216717,1.45003213 C14.991366,1.515237 14.8972562,1.58975686 14.7948732,1.68394167 L14.7948732,1.68394167 C14.6924901,1.77709149 14.6273372,1.87955628 14.5621843,2.01100102 L14.5621843,2.01100102 C14.4587671,2.30908043 14.4587671,2.60819484 14.5621843,2.87004932 L14.5621843,2.87004932 C14.6273372,3.00045907 14.7017976,3.09360888 14.7948732,3.19710868 L14.7948732,3.19710868 C14.8879487,3.29957348 14.991366,3.36477835 15.1216717,3.42998322 L15.1216717,3.42998322 C15.3833174,3.53244801 15.7194235,3.53244801 15.980035,3.42998322 L15.980035,3.42998322 C16.0731105,3.36477835 16.2044504,3.29025849 16.3068335,3.19710868 L16.3068335,3.19710868 C16.4102508,3.10395886 16.4754036,3.00045907 16.5405565,2.87004932 L16.5405565,2.87004932 C16.6429396,2.57093492 16.6429396,2.27182051 16.5405565,2.01100102 L16.5405565,2.01100102 C16.4754036,1.87955628 16.4102508,1.78640647 16.3068335,1.68394167 L16.3068335,1.68394167 C16.2044504,1.58044187 16.0731105,1.515237 15.9428047,1.45003213 L15.9428047,1.45003213 C15.812499,1.42208719 15.6439289,1.38482726 15.5136231,1.38482726 L15.5136231,1.38482726 C15.3833174,1.38482726 15.2147472,1.41277221 15.1216717,1.45003213 L15.1216717,1.45003213 Z M15.2519774,3.03771899 C15.1868246,3.00977405 15.1216717,2.97251412 15.0565188,2.90730925 L15.0565188,2.90730925 C14.991366,2.87936431 14.9624091,2.77586451 14.9251789,2.71169464 L14.9251789,2.71169464 C14.860026,2.54298997 14.860026,2.34634036 14.9251789,2.17867069 L14.9251789,2.17867069 C14.9541357,2.11346582 14.991366,2.04826095 15.0565188,1.98202108 L15.0565188,1.98202108 C15.1216717,1.91681621 15.1868246,1.88887126 15.2519774,1.85161134 L15.2519774,1.85161134 C15.3460872,1.81435141 15.41124,1.81435141 15.5136231,1.81435141 L15.5136231,1.81435141 C15.6160062,1.81435141 15.6811591,1.81435141 15.7463119,1.85161134 L15.7463119,1.85161134 C15.812499,1.87955628 15.8776519,1.91681621 15.9428047,1.98202108 L15.9428047,1.98202108 C16.0079576,2.01100102 16.0358803,2.11346582 16.0731105,2.17867069 L16.0731105,2.17867069 C16.1392975,2.34634036 16.1392975,2.54298997 16.0731105,2.71169464 L16.0731105,2.71169464 C16.046222,2.77586451 16.0079576,2.84106938 15.9428047,2.90730925 L15.9428047,2.90730925 C15.9148821,2.97251412 15.812499,3.00045907 15.7463119,3.03771899 L15.7463119,3.03771899 C15.662544,3.07083893 15.5808443,3.08739889 15.4991447,3.08739889 L15.4991447,3.08739889 C15.4174451,3.08739889 15.3357454,3.07083893 15.2519774,3.03771899 L15.2519774,3.03771899 Z M13.5073283,1.68394167 L13.5073283,1.45003213 L13.0409164,1.45003213 L13.0409164,3.46724314 L13.4700981,3.46724314 L13.4700981,2.34634036 C13.4700981,2.01100102 13.6004038,1.81435141 13.8982455,1.81435141 L13.8982455,1.81435141 C13.9923552,1.81435141 14.0575081,1.84229636 14.1598912,1.87955628 L14.1598912,1.87955628 L14.2912311,1.45003213 C14.1878138,1.42208719 14.0947383,1.38482726 13.9923552,1.38482726 L13.9923552,1.38482726 C13.7958624,1.38482726 13.6004038,1.515237 13.5073283,1.68394167 L13.5073283,1.68394167 Z M8.87009836,2.04826095 C8.87009836,2.38360029 9.09347964,2.5802499 9.55989148,2.64545477 L9.55989148,2.64545477 L9.75638427,2.6827147 C10.0169958,2.71169464 10.1193789,2.77586451 10.1193789,2.87936431 L10.1193789,2.87936431 C10.1193789,3.00977405 9.95184289,3.11223885 9.65400118,3.11223885 L9.65400118,3.11223885 C9.42027818,3.14949877 9.18655517,3.04703397 8.99109655,2.91662423 L8.99109655,2.91662423 L8.79460376,3.24368359 C9.02832676,3.40203827 9.3551253,3.50450307 9.65400118,3.50450307 L9.65400118,3.50450307 C10.2496846,3.50450307 10.5764831,3.16916373 10.5764831,2.84106938 L10.5764831,2.84106938 C10.5764831,2.50573005 10.3148375,2.30908043 9.88669002,2.24387556 L9.88669002,2.24387556 L9.69019723,2.20661564 C9.53196882,2.17867069 9.36443286,2.14141077 9.36443286,2.01100102 L9.36443286,2.01100102 C9.36443286,1.87955628 9.54231054,1.77709149 9.76569183,1.77709149 L9.76569183,1.77709149 C9.98907311,1.77709149 10.1938393,1.84229636 10.3903321,1.94476115 L10.3903321,1.94476115 L10.557868,1.58044187 C10.287949,1.45003213 10.0263033,1.38482726 9.72846161,1.38482726 L9.72846161,1.38482726 C9.1968969,1.38482726 8.87009836,1.64564675 8.87009836,2.04826095 L8.87009836,2.04826095 Z M6.55458591,2.44052517 C6.55458591,3.03771899 7.04892042,3.49622309 7.60944196,3.46724314 L7.60944196,3.46724314 C7.90831784,3.46724314 8.20719372,3.36477835 8.43988256,3.16916373 L8.43988256,3.16916373 L8.24442394,2.84106938 C8.0758538,2.97251412 7.88039518,3.03771899 7.64667218,3.03771899 L7.64667218,3.03771899 C7.3477963,3.07497892 7.08615063,2.84106938 7.04892042,2.54298997 L7.04892042,2.54298997 L8.53399226,2.54298997 C8.54329982,2.57093492 8.54329982,2.50573005 8.54329982,2.44052517 L8.54329982,2.44052517 C8.54329982,1.81435141 8.14204085,1.38482726 7.5815193,1.38482726 L7.5815193,1.38482726 C6.98376754,1.38482726 6.52666325,1.87955628 6.55458591,2.44052517 L6.55458591,2.44052517 Z M7.5815193,1.77709149 C7.71182505,1.77709149 7.84316497,1.81435141 7.94554806,1.90750123 L7.94554806,1.90750123 C8.04793114,2.01100102 8.11308402,2.14141077 8.11308402,2.27182051 L8.11308402,2.27182051 L7.04892042,2.27182051 C7.04892042,1.9727061 7.31056608,1.77709149 7.5815193,1.77709149 L7.5815193,1.77709149 Z M4.05395658,2.44052517 C4.05395658,3.02840401 4.52036842,3.49622309 5.10881262,3.49622309 L5.10881262,3.49622309 C5.34253563,3.49622309 5.60314713,3.39272329 5.73448705,3.19710868 L5.73448705,3.19710868 L5.73448705,3.42998322 L6.16366867,3.42998322 L6.16366867,2.44052517 L6.16366867,1.45003213 L5.73448705,1.45003213 L5.73448705,1.68394167 C5.56591691,1.48729206 5.33322808,1.38482726 5.10881262,1.38482726 L5.10881262,1.38482726 C4.51106086,1.38482726 4.05395658,1.85161134 4.05395658,2.44052517 L4.05395658,2.44052517 Z M4.6982461,2.90730925 C4.56794036,2.77586451 4.50175331,2.60819484 4.53898352,2.44052517 L4.53898352,2.44052517 C4.57621374,2.11346582 4.83889358,1.84229636 5.16569212,1.87955628 L5.16569212,1.87955628 C5.49145649,1.87955628 5.76240971,2.17867069 5.76240971,2.50573005 L5.76240971,2.50573005 C5.76240971,2.8327894 5.50076404,3.10395886 5.16569212,3.10395886 L5.16569212,3.10395886 C4.99712198,3.10395886 4.83889358,3.03771899 4.6982461,2.90730925 L4.6982461,2.90730925 Z M2.23484698,1.77709149 C2.10454123,1.54318195 1.83358801,1.41277221 1.57194235,1.41277221 L1.57194235,1.41277221 C1.33925351,1.41277221 1.10553051,1.515237 0.975224758,1.71085162 L0.975224758,1.71085162 L0.975224758,1.45003213 L0.545008958,1.45003213 L0.545008958,3.46724314 L0.947302098,3.46724314 L0.947302098,2.34634036 C0.910071885,2.21593062 0.984532312,2.08552088 1.07760785,1.94476115 L1.07760785,1.94476115 C1.17999093,1.84229636 1.31029668,1.77709149 1.4416366,1.77709149 L1.4416366,1.77709149 C1.74051248,1.77709149 1.87081823,1.9727061 1.87081823,2.30908043 L1.87081823,2.30908043 L1.87081823,3.42998322 L2.29999985,3.42998322 L2.29999985,2.30908043 C2.26276964,2.17867069 2.33723007,2.04826095 2.43133977,1.90750123 L2.43133977,1.90750123 C2.53372286,1.80503643 2.66402861,1.73983156 2.79433435,1.73983156 L2.79433435,1.73983156 C3.09321023,1.73983156 3.22351598,1.93544617 3.22351598,2.27182051 L3.22351598,2.27182051 L3.22351598,3.39272329 L3.68062027,3.46724314 L3.68062027,2.20661564 C3.68062027,2.01100102 3.6154674,1.77709149 3.48516165,1.64564675 L3.48516165,1.64564675 C3.31659152,1.47797708 3.1211329,1.41277221 2.9246401,1.41277221 L2.9246401,1.41277221 C2.89671744,1.40966721 2.86879478,1.40759722 2.84190629,1.40759722 L2.84190629,1.40759722 C2.57819228,1.40759722 2.35377683,1.56491691 2.23484698,1.77709149 L2.23484698,1.77709149 Z" id="path-1"></path>
        <polygon id="path-3" points="0.0599820106 0.548548915 6.70350677 0.548548915 6.70350677 12.4934603 0.0599820106 12.4934603"></polygon>
        <path d="M2.39617791,2.45294515 C-0.282329119,5.36646439 -0.282329119,9.86767049 2.39617791,12.7439298 L2.39617791,12.7439298 C5.07365076,15.657449 9.53507134,16.0217683 12.6799902,13.5750332 L12.6799902,13.5750332 C10.8598464,12.1084411 9.76879434,9.89561543 9.76879434,7.58032501 L9.76879434,7.58032501 C9.76879434,5.26296459 10.8226162,3.05013897 12.6799902,1.62080679 L12.6799902,1.62080679 C11.2983356,0.534058944 9.64986449,0.00206999591 8.00656424,0.00206999591 L8.00656424,0.00206999591 C5.95166329,0.00206999591 3.90503572,0.833173352 2.39617791,2.45294515 L2.39617791,2.45294515 Z" id="path-5"></path>
        <path d="M0.269919048,1.62080679 C2.12625886,3.05013897 3.18111491,5.26296459 3.18111491,7.58032501 L3.18111491,7.58032501 C3.18111491,9.89561543 2.08902864,12.0815311 0.269919048,13.5377732 L0.269919048,13.5377732 C2.54613293,15.3221097 5.65382158,15.657449 8.26717573,14.3978565 L8.26717573,14.3978565 C10.8794957,13.136194 12.5310693,10.4938442 12.5310693,7.58032501 L12.5310693,7.58032501 C12.5310693,4.66577077 10.8794957,2.01410602 8.26717573,0.762793492 L8.26717573,0.762793492 C7.21955889,0.254609497 6.08920825,0.00620998772 4.96299429,0.00620998772 L4.96299429,0.00620998772 C3.29177137,0.00620998772 1.63089018,0.555793901 0.269919048,1.62080679 L0.269919048,1.62080679 Z" id="path-7"></path>
    </defs>
    <g id="Dizajn" stroke="none" stroke-width="1" fill="none" fill-rule="evenodd">
        <g id="Početna-v1--" transform="translate(-1374.000000, -4405.000000)">
            <g id="Footer" transform="translate(0.000000, 4151.000000)">
                <g id="Mogućnosti-plaćanja" transform="translate(1253.000000, 73.000000)">
                    <g id="Group-44" transform="translate(0.000000, 179.000000)">
                        <g id="Cards" transform="translate(76.000000, 1.000000)">
                            <g id="Maestro" transform="translate(44.959114, 0.685917)">
                                <g id="Group-28" transform="translate(0.114613, 0.000000)" fill="#223343">
                                    <path d="M38.7295569,0.428696152 L2.98958614,0.428696152 C1.89749988,0.428696152 1.00190641,1.32500438 1.00190641,2.41796222 L1.00190641,24.9157127 C1.00190641,26.0086706 1.89749988,26.9049788 2.98958614,26.9049788 L38.7295569,26.9049788 C39.8216432,26.9049788 40.7172366,26.0086706 40.7172366,24.9157127 L40.7172366,2.41796222 C40.7172366,1.32500438 39.8216432,0.428696152 38.7295569,0.428696152" id="Fill-24"></path>
                                    <path d="M1.00200983,2.41827272 C1.00200983,1.32531488 1.8976033,0.429006652 2.98968956,0.429006652 L38.7296603,0.429006652 C39.8217466,0.429006652 40.71734,1.32531488 40.71734,2.41827272 L40.71734,24.9160232 C40.71734,26.0079461 39.8217466,26.9052893 38.7296603,26.9052893 L2.98968956,26.9052893 C1.8976033,26.9052893 1.00200983,26.0079461 1.00200983,24.9160232 L1.00200983,2.41827272 Z" id="Fill-26"></path>
                                </g>
                                <g id="Group-31" transform="translate(12.524684, 19.664961)">
                                    <mask id="mask-2" fill="white">
                                        <use xlink:href="#path-1"></use>
                                    </mask>
                                    <g id="Clip-30"></g>
                                    <polygon id="Fill-29" fill="#FEFEFE" mask="url(#mask-2)" points="-1.71258982 5.78356856 19.4517524 5.78356856 19.4517524 -1.35998731 -1.71258982 -1.35998731"></polygon>
                                </g>
                                <g id="Group-34" transform="translate(17.695547, 5.174990)">
                                    <mask id="mask-4" fill="white">
                                        <use xlink:href="#path-3"></use>
                                    </mask>
                                    <g id="Clip-33"></g>
                                    <polygon id="Fill-32" fill="#7773B5" mask="url(#mask-4)" points="-2.15211317 14.7073209 8.88767929 14.7073209 8.88767929 -1.63633176 -2.15211317 -1.63633176"></polygon>
                                </g>
                                <g id="Group-37" transform="translate(8.387994, 4.139992)">
                                    <mask id="mask-6" fill="white">
                                        <use xlink:href="#path-5"></use>
                                    </mask>
                                    <g id="Clip-36"></g>
                                    <polygon id="Fill-35" fill="#E91D25" mask="url(#mask-6)" points="-1.80359701 17.3765806 14.8910512 17.3765806 14.8910512 -2.21696562 -1.80359701 -2.21696562"></polygon>
                                </g>
                                <g id="Group-40" transform="translate(20.798065, 4.139992)">
                                    <mask id="mask-8" fill="white">
                                        <use xlink:href="#path-7"></use>
                                    </mask>
                                    <g id="Clip-39"></g>
                                    <polygon id="Fill-38" fill="#179FDA" mask="url(#mask-8)" points="-1.95148369 17.3672657 14.7431645 17.3672657 14.7431645 -2.25422554 -1.95148369 -2.25422554"></polygon>
                                </g>
                            </g>
                        </g>
                    </g>
                </g>
            </g>
        </g>
    </g>
</svg>